<?xml version="1.0" encoding="UTF-8" standalone="no"?>
<!-- Created with Inkscape (http://www.inkscape.org/) -->

<svg
   width="1000"
   height="1000"
   viewBox="0 0 264.58333 264.58333"
   version="1.1"
   id="svg1"
   xml:space="preserve"
   sodipodi:docname="paw.svg"
   inkscape:version="1.3 (0e150ed6c4, 2023-07-21)"
   inkscape:export-filename="paw.png"
   inkscape:export-xdpi="98.304001"
   inkscape:export-ydpi="98.304001"
   xmlns:inkscape="http://www.inkscape.org/namespaces/inkscape"
   xmlns:sodipodi="http://sodipodi.sourceforge.net/DTD/sodipodi-0.dtd"
   xmlns="http://www.w3.org/2000/svg"
   xmlns:svg="http://www.w3.org/2000/svg"><sodipodi:namedview
     id="namedview1"
     pagecolor="#ffffff"
     bordercolor="#000000"
     borderopacity="0.25"
     inkscape:showpageshadow="2"
     inkscape:pageopacity="0.0"
     inkscape:pagecheckerboard="0"
     inkscape:deskcolor="#d1d1d1"
     inkscape:document-units="mm"
     inkscape:zoom="0.25"
     inkscape:cx="246"
     inkscape:cy="262"
     inkscape:window-width="3840"
     inkscape:window-height="2066"
     inkscape:window-x="-11"
     inkscape:window-y="-11"
     inkscape:window-maximized="1"
     inkscape:current-layer="layer1" /><defs
     id="defs1"><linearGradient
       id="swatch3"
       inkscape:swatch="solid"><stop
         style="stop-color:#000000;stop-opacity:1;"
         offset="0"
         id="stop3" /></linearGradient></defs><g
     inkscape:label="Paw"
     inkscape:groupmode="layer"
     id="layer1"><path
       d="m 219.03426,239.61575 c 1.29211,-3.58549 3.3096,-12.18564 2.61601,-18.59791 -0.55881,-5.16631 -2.24597,-10.80568 -4.89437,-15.42389 -3.08281,-5.37574 -8.19141,-9.38128 -11.8193,-11.04035 -2.11298,-0.96631 -5.48897,-1.5717 -8.95634,-1.31699 -4.49073,0.0212 -8.45784,2.08894 -12.27632,4.59323 -0.14921,-5.70873 -0.84747,-10.89905 -2.67177,-16.58957 -1.29416,-4.03684 -4.74965,-8.90984 -7.87773,-11.73095 -8.85803,-7.98865 -19.42709,-8.23355 -29.69102,-2.13725 -5.5082,3.27779 -9.60852,10.04925 -11.50965,14.25433 -0.5598,-4.12469 -1.85048,-11.01143 -4.61222,-15.96286 -2.44603,-4.38537 -7.18749,-9.19843 -11.23323,-11.40287 -4.32676,-2.35753 -8.76007,-3.20747 -13.72807,-2.63188 -4.337001,0.50248 -7.308178,1.3796 -12.290218,4.48633 -2.916657,1.8188 -5.910552,5.17529 -7.355845,7.39588 -2.57797,3.72584 -4.266677,8.57765 -5.250129,13.05576 -1.029392,6.3262 -0.950878,12.86296 -0.516544,15.37404 -1.79631,-1.5657 -7.337318,-5.04485 -11.838607,-5.31199 -5.532521,-0.0735 -10.803824,0.39401 -14.946728,4.47549 -3.861764,3.80451 -6.077089,6.87336 -7.565984,12.17017 -1.842367,6.55431 -2.272285,11.80392 -1.894834,18.59021 0.407109,8.00107 2.089784,12.64276 4.676547,18.37956 2.052966,4.55295 8.301315,11.46019 13.712321,14.02683 4.898333,2.32346 8.320777,2.73332 12.901748,1.82659 6.109573,-1.20928 11.464965,-3.67735 14.622962,-6.73911 3.002871,-2.91135 7.097069,-8.34276 8.828972,-14.48281 1.265407,-4.48623 2.007325,-8.65095 1.966401,-13.1474 0.90081,0.21238 4.740638,1.36896 9.149998,1.38316 3.80599,0.0123 8.51373,-1.32385 11.3722,-3.41093 4.86651,-3.55323 5.29862,-3.65916 9.66309,-8.15523 0,0 1.24818,2.89055 3.18169,6.07388 2.26617,3.73106 5.67146,7.5477 9.46805,9.88258 4.90762,3.01817 11.38807,3.7205 16.0134,3.75323 2.85498,0.0202 8.07783,-0.93736 10.37945,-1.91044 -0.11702,4.57662 -0.43899,11.42191 1.18441,15.99766 1.79381,5.05591 3.12565,7.2298 6.06597,10.1637 3.53614,3.52845 6.73623,4.86069 10.6039,5.30087 5.69731,0.64842 10.84937,0.5661 14.70811,-0.72647 3.95841,-1.32595 9.63922,-5.58485 12.55833,-8.65551 2.9191,-3.07066 5.96325,-8.22361 7.25535,-11.80909 z"
       style="fill:#ea7e7e;fill-opacity:1;fill-rule:nonzero;stroke:none;stroke-width:1.18423;stroke-opacity:1"
       id="path1"
       sodipodi:nodetypes="ssssccscccssssccccsscssssscsscsssccsssss"
       inkscape:label="PadBack" /><path
       d="m 56.375175,154.32202 c 4.915532,-6.00891 6.773107,-13.59821 7.547034,-26.7845 0.289014,-4.92426 -0.355338,-13.27564 -3.022603,-20.26488 C 56.269667,95.14044 49.001039,87.085133 39.524517,83.908634 34.385007,82.185887 24.982152,80.235398 16.783312,87.94828 c -6.062311,5.702987 -8.8506024,15.20594 -10.2884206,25.57199 -0.942336,6.79383 -0.2140271,15.73178 1.4340231,24.09339 1.6480503,8.36161 4.6307125,12.48874 8.8851905,17.4639 4.25448,4.97516 12.255278,8.63712 20.636582,8.81338 8.381303,0.17627 13.574324,-3.02869 18.924488,-9.56892 z"
       style="fill:#ea7e7e;fill-opacity:1;fill-rule:nonzero;stroke:none;stroke-width:1.15885;stroke-opacity:1"
       id="path1-6"
       inkscape:label="Pad1" /><path
       d="m 90.651269,97.239735 c 9.029382,-5.728981 13.743671,-16.064597 15.048021,-24.103709 1.26209,-7.778736 1.89327,-13.913924 1.09883,-21.003103 -0.95858,-8.553659 -3.41055,-15.027692 -9.400078,-22.697388 -3.885573,-4.975563 -6.520354,-7.5818 -14.506699,-10.419605 -6.172238,-2.193196 -14.132075,-1.555629 -19.716229,1.70532 -8.819781,5.150442 -15.442873,17.182948 -17.225154,26.876533 -2.009822,10.931155 -1.951049,18.368502 1.896074,31.20662 3.109606,10.376969 10.713951,16.759982 15.972142,19.800359 8.00064,4.626098 20.271623,3.288048 26.833093,-1.365027 z"
       style="fill:#ea7e7e;fill-opacity:1;fill-rule:nonzero;stroke:none;stroke-width:1.23053;stroke-opacity:1"
       id="path1-9"
       inkscape:label="Pad2" /><path
       d="m 146.93035,84.716281 c 4.01884,-2.022957 10.39699,-7.837853 13.55041,-13.487537 3.15344,-5.649684 4.49078,-9.051881 5.84785,-13.969453 1.35705,-4.917573 2.23031,-10.396985 2.24005,-17.553911 0.009,-7.156927 -1.48646,-13.801124 -4.57283,-20.034711 C 160.90946,13.437082 154.94615,9.2261685 148.64601,6.651545 142.65122,4.2017077 134.52194,4.5016137 129.1968,6.2557067 c -4.66102,1.5353358 -9.7587,5.1307213 -13.00109,9.8576043 -3.24238,4.726882 -6.34911,12.496011 -7.49063,18.749426 -1.84722,7.345462 -0.74738,14.64885 0.14485,21.982703 0.50243,4.256752 1.4149,7.30686 4.38953,13.552002 2.97463,6.245142 5.40989,9.383952 8.85362,11.685011 3.44374,2.30106 8.13943,3.93096 11.75358,4.371628 3.61416,0.440668 9.06484,0.285159 13.08369,-1.7378 z"
       style="fill:#ea7e7e;fill-opacity:1;fill-rule:nonzero;stroke:none;stroke-width:1.18389;stroke-opacity:1"
       id="path1-0"
       inkscape:label="Pad3" /><path
       style="fill:#ea7e7e;fill-opacity:1;fill-rule:nonzero;stroke:none;stroke-width:1.19475;stroke-opacity:1"
       d="m 194.45434,117.44561 c 6.99935,-1.2409 13.39622,-5.05831 20.11955,-10.69929 13.72065,-11.511872 20.40337,-32.289825 15.74185,-48.944641 -2.49457,-8.912651 -8.15779,-17.060137 -14.90851,-21.448361 -6.51402,-4.234353 -10.15715,-4.832797 -16.11321,-4.832797 -5.66794,0 -9.42585,1.182843 -14.38303,4.527222 -5.46987,3.690268 -12.16006,11.627498 -15.26281,19.479305 -1.19957,3.035628 -3.03,9.60859 -3.63223,13.043114 -1.85331,10.569475 -2.33935,20.037466 -0.82835,26.922531 1.51099,6.885067 4.1168,12.572587 8.68704,16.346377 4.57024,3.77378 13.58036,6.84744 20.5797,5.60654 z"
       id="path2"
       sodipodi:nodetypes="zsssssszzzz"
       inkscape:label="Pad4" /><path
       d="m 234.60666,175.54042 c 2.50639,-0.89184 9.07293,-4.54953 11.2637,-6.50033 2.34967,-2.09233 7.41532,-8.17303 9.68854,-12.60445 3.23252,-6.30153 4.77587,-11.09701 5.22351,-19.16847 0.40683,-7.33588 -0.74552,-15.65739 -3.0916,-20.78196 -3.49404,-7.58523 -6.61836,-10.66408 -14.53392,-13.20096 -8.06614,-2.58513 -17.68103,-1.11974 -23.65584,3.0152 -8.73071,6.0422 -15.15259,18.33867 -17.51561,30.40626 -1.3055,6.66706 -0.97013,12.81591 -0.28993,17.00789 0.90924,5.60352 4.2067,13.06686 7.26763,16.44928 2.95022,3.26011 8.1705,5.47072 12.35729,6.18758 3.76188,0.6441 10.32489,0.2437 13.28623,-0.81004 z"
       style="fill:#ea7e7e;fill-opacity:1;fill-rule:nonzero;stroke:none;stroke-width:1.22077;stroke-opacity:1"
       id="path1-8"
       inkscape:label="Pad5" /></g></svg>
