<?xml version="1.0" encoding="UTF-8" standalone="no"?>
<!-- Created with Inkscape (http://www.inkscape.org/) -->

<svg
   width="100mm"
   height="100mm"
   viewBox="0 0 100 100"
   version="1.1"
   id="svg1"
   inkscape:version="1.3 (0e150ed6c4, 2023-07-21)"
   sodipodi:docname="paw.svg"
   xml:space="preserve"
   xmlns:inkscape="http://www.inkscape.org/namespaces/inkscape"
   xmlns:sodipodi="http://sodipodi.sourceforge.net/DTD/sodipodi-0.dtd"
   xmlns="http://www.w3.org/2000/svg"
   xmlns:svg="http://www.w3.org/2000/svg"><sodipodi:namedview
     id="namedview1"
     pagecolor="#ffffff"
     bordercolor="#000000"
     borderopacity="0.25"
     inkscape:showpageshadow="2"
     inkscape:pageopacity="0.0"
     inkscape:pagecheckerboard="0"
     inkscape:deskcolor="#d1d1d1"
     inkscape:document-units="mm"
     inkscape:zoom="1.6311518"
     inkscape:cx="198.32612"
     inkscape:cy="362.62719"
     inkscape:window-width="3840"
     inkscape:window-height="2066"
     inkscape:window-x="-11"
     inkscape:window-y="-11"
     inkscape:window-maximized="1"
     inkscape:current-layer="layer1" /><defs
     id="defs1" /><g
     inkscape:label="Layer 1"
     inkscape:groupmode="layer"
     id="layer1"><path
       style="fill:#ea7e7e;stroke:none"
       d="M 50.65137,2.1203339 C 49.722396,2.243799 48.831819,2.4337113 47.965823,2.8040767 45.706407,3.7703693 44.023065,5.690366 42.872627,7.8125 c -1.958329,3.612393 -2.566165,7.958257 -2.173907,12.011719 0.118125,1.220673 0.335229,2.423572 0.632656,3.613281 0.503918,2.015668 1.327914,4.05575 2.736485,5.615234 2.09423,2.318609 5.266359,3.128249 8.292493,2.720583 3.860086,-0.520009 6.477213,-3.397113 7.871086,-6.870973 2.009558,-5.00831 2.139288,-10.74087 0.126969,-15.7714846 C 58.77463,5.1715493 55.296056,1.5030384 50.65137,2.1203339 M 28.336917,9.6886933 c -3.751541,0.4985927 -6.263927,3.2747747 -7.617188,6.6687287 -2.131033,5.344587 -1.539065,11.55476 1.205783,16.552734 1.935743,3.524709 5.284862,6.500656 9.536405,5.991918 0.956359,-0.114435 1.898563,-0.383168 2.783203,-0.760001 6.008968,-2.559668 7.137394,-10.025298 6.172538,-15.778792 -0.165433,-0.986486 -0.360096,-1.972854 -0.656206,-2.929687 -0.402468,-1.300514 -0.892293,-2.574379 -1.5686,-3.759766 -1.922948,-3.370422 -5.697385,-6.5378247 -9.855935,-5.9851347 m 43.554687,0.9277347 c -3.808278,0.501489 -6.407702,3.109103 -8.118093,6.424588 -2.144575,4.157132 -3.088564,8.936727 -2.310932,13.574218 0.279957,1.669556 0.842715,3.3418 1.821638,4.736328 1.873385,2.668739 5.093771,4.048926 8.314418,3.64821 7.547146,-0.939017 10.233713,-9.699112 10.156441,-16.197038 -0.01714,-1.44099 -0.166881,-2.900272 -0.544685,-4.296875 -1.013678,-3.747165 -3.454852,-7.47413 -7.658631,-7.864982 -0.541228,-0.05032 -1.11798,-0.09584 -1.660156,-0.02445 M 14.469729,31.514864 c -0.789012,0.103897 -1.564567,0.245869 -2.294922,0.580287 -3.077372,1.409084 -4.584788,4.644013 -5.042521,7.846254 -0.621135,4.34537 0.359664,9.175837 3.072366,12.695313 2.07109,2.687049 5.230938,4.553699 8.708437,4.136449 4.133129,-0.495917 6.866249,-4.006404 7.52345,-7.945043 0.803748,-4.816908 -0.825289,-10.059458 -4.101826,-13.671875 -1.931005,-2.128953 -4.838735,-4.03989 -7.864984,-3.641385 m 68.359375,3.222656 c -7.441032,0.979859 -10.684609,9.769643 -10.050303,16.434354 0.152821,1.60569 0.567323,3.174841 1.449919,4.541016 1.735807,2.686858 4.956156,4.148632 8.112103,3.745824 2.743357,-0.350147 5.079323,-2.238052 6.575519,-4.478245 2.469992,-3.698218 3.509456,-8.567953 2.604019,-12.939453 -0.830954,-4.011906 -4.228776,-7.891131 -8.691257,-7.303495 M 48.600589,67.089844 h -0.04883 c -0.439062,-2.263999 -1.093417,-4.352427 -2.742663,-6.050319 -3.037512,-3.127104 -8.343079,-3.369099 -11.661633,-0.568872 -1.448501,1.222264 -2.424282,2.910924 -3.078622,4.666066 -1.474679,3.955543 -1.480773,8.885187 0.686043,12.597656 -0.543561,-0.253481 -0.974702,-0.872552 -1.464843,-1.233661 -1.211322,-0.892449 -2.635995,-1.451886 -4.150391,-1.451886 -3.382188,0 -5.940032,2.258015 -7.240276,5.273438 -1.844665,4.277998 -1.587193,10.13351 1.36455,13.867187 3.235152,4.092163 9.803997,4.16283 13.043173,0.04883 1.084226,-1.377052 1.676657,-3.123128 1.959493,-4.833984 0.288552,-1.745433 0.218153,-3.49763 -0.163287,-5.22461 -0.185483,-0.839787 -0.641951,-1.685202 -0.7117,-2.539062 0.547183,0.05635 1.070359,0.555223 1.5625,0.7918 0.94412,0.453848 2.026317,0.792021 3.076172,0.863987 4.018924,0.275487 7.146266,-2.439981 8.670533,-6.00149 0.378981,-0.885505 0.656095,-1.796174 0.868016,-2.734375 0.117091,-0.51837 0.140837,-1.061726 0.324732,-1.5625 0.333339,0.405705 0.463993,0.949305 0.695688,1.416015 0.361299,0.727767 0.798452,1.384867 1.327175,2.001954 1.765763,2.060878 4.658836,2.982747 7.303309,2.574479 0.91399,-0.141108 1.837427,-0.726753 2.734375,-0.767839 -0.01927,0.420612 -0.253779,0.789297 -0.40999,1.171875 -0.268352,0.657219 -0.518018,1.316542 -0.70563,2.001953 -0.537568,1.96392 -0.633055,3.984201 -0.491339,6.00586 0.291359,4.156369 2.552331,8.514595 7.026881,9.095782 0.676435,0.08786 1.382983,0.02702 2.050781,-0.101799 0.931198,-0.17963 1.80406,-0.495815 2.636719,-0.948608 1.008934,-0.548643 1.955235,-1.285177 2.726084,-2.137172 3.525335,-3.896451 4.583389,-9.920859 2.82529,-14.84375 -1.195908,-3.348684 -4.230464,-6.210601 -7.99278,-5.85109 -1.085735,0.103748 -2.147627,0.446916 -3.076172,1.020271 -0.525934,0.324743 -0.97903,0.766432 -1.513672,1.071053 0.516748,-1.234627 1.265037,-2.3296 1.70514,-3.613281 1.219123,-3.555906 1.197433,-7.962912 -0.700623,-11.279297 -2.618676,-4.575497 -8.762777,-5.737531 -12.674439,-2.09524 -2.629536,2.448457 -3.610235,5.887502 -3.759765,9.370631 z"
       id="path1" /></g></svg>
