<?xml version="1.0" encoding="UTF-8" standalone="no"?>
<!-- Created with Inkscape (http://www.inkscape.org/) -->

<svg
   width="100mm"
   height="100mm"
   viewBox="0 0 100 100"
   version="1.1"
   id="svg1"
   xml:space="preserve"
   sodipodi:docname="squirrelbite.svg"
   inkscape:version="1.3 (0e150ed6c4, 2023-07-21)"
   xmlns:inkscape="http://www.inkscape.org/namespaces/inkscape"
   xmlns:sodipodi="http://sodipodi.sourceforge.net/DTD/sodipodi-0.dtd"
   xmlns="http://www.w3.org/2000/svg"
   xmlns:svg="http://www.w3.org/2000/svg"><sodipodi:namedview
     id="namedview1"
     pagecolor="#ffffff"
     bordercolor="#000000"
     borderopacity="0.25"
     inkscape:showpageshadow="2"
     inkscape:pageopacity="0.0"
     inkscape:pagecheckerboard="0"
     inkscape:deskcolor="#d1d1d1"
     inkscape:document-units="mm"
     inkscape:zoom="3.2623036"
     inkscape:cx="147.28856"
     inkscape:cy="205.52961"
     inkscape:window-width="3840"
     inkscape:window-height="2066"
     inkscape:window-x="-11"
     inkscape:window-y="-11"
     inkscape:window-maximized="1"
     inkscape:current-layer="layer1" /><defs
     id="defs1" /><g
     inkscape:label="Layer 1"
     inkscape:groupmode="layer"
     id="layer1"
     style="display:inline"><path
       style="fill:#e97d7d;stroke:none"
       d="M 48.535156,0.11838078 C 47.348911,0.27412176 46.117544,0.23429394 44.921875,0.35008788 41.885149,0.64417124 38.864517,1.2651026 35.9375,2.1203339 23.71808,5.69067 13.193402,13.997525 6.8078309,25 -3.2795429,42.380768 -1.7369919,64.808643 10.616425,80.664062 c 3.846806,4.937315 8.58206,9.04845 13.944122,12.265617 4.348278,2.608913 9.205374,4.581988 14.160156,5.682409 5.790302,1.285988 11.741144,1.659832 17.626953,0.88588 5.653346,-0.743383 11.23482,-2.409399 16.308594,-5.02817 4.803187,-2.479107 9.257936,-5.684352 13.036394,-9.557689 C 94.431114,75.954211 99.595338,63.724792 99.901628,51.220703 100.23543,37.593597 94.757468,23.720622 84.863281,14.259732 79.217273,8.8609815 72.48264,4.8028171 65.039062,2.4246037 61.336982,1.2417972 57.487327,0.50538778 53.613281,0.2397716 51.972979,0.12730956 50.175786,-0.09701252 48.535156,0.11838078 M 51.5625,2.4902344 c -0.39928,2.0588815 -0.779927,4.106915 -0.923365,6.2011719 -0.04112,0.6002902 -0.0532,1.2042939 -0.0532,1.8066407 0,0.199413 0.07317,0.585067 -0.05018,0.753748 -0.111544,0.152535 -0.459373,0.239957 -0.6336,0.292325 -0.482771,0.145114 -0.94161,0.331116 -1.416016,0.492728 -1.725807,0.58791 -3.41486,1.322943 -5.076015,2.072072 -4.978525,2.24517 -9.948492,5.229294 -13.757324,9.190387 -3.000215,3.120148 -5.236335,6.862223 -7.284207,10.644531 -1.482071,2.737307 -2.664102,5.681223 -4.796573,7.997638 -0.95023,1.032197 -2.016529,1.957065 -3.0073,2.945512 -1.431869,1.428515 -2.826543,2.903706 -4.319104,4.267258 -1.0598848,0.968277 -2.2680866,1.761436 -3.2714459,2.794546 -1.3242558,1.363522 -3.0019678,3.303081 -2.7052142,5.375427 0.2979838,2.080941 1.8215787,3.900575 3.5030037,5.074286 0.7937044,0.554037 1.7941617,0.962222 2.4660844,1.670248 1.468793,1.547706 2.718421,3.307217 4.172355,4.874825 2.442196,2.633131 5.597338,4.849857 8.832503,6.382471 1.744993,0.826663 3.636312,1.331306 5.521232,1.712787 0.540539,0.109399 1.187715,0.01722 1.704576,0.185967 0.228846,0.07472 0.361315,0.291502 0.538883,0.438553 0.482273,0.399393 0.946554,0.820273 1.428223,1.222545 1.060375,0.885594 2.258849,1.585251 3.493395,2.193844 0.479904,0.236571 1.671395,0.939417 2.197039,0.573463 0.490713,-0.341636 0.299904,-1.08592 0.08108,-1.526255 -0.62015,-1.247918 -1.696345,-2.244347 -2.367487,-3.466797 1.232993,-0.379914 2.447352,-0.766635 3.612566,-1.333993 1.016661,-0.495029 1.958146,-1.152081 2.981153,-1.627571 1.591056,-0.739515 3.223428,-1.101363 4.978546,-0.881958 1.306156,0.163293 2.784825,0.790107 3.492982,1.94751 1.144236,1.870138 0.427508,4.576433 -0.564951,6.347663 -0.324839,0.579732 -0.692099,1.303649 -1.227522,1.724428 -0.505865,0.397551 -1.531407,0.359839 -2.139962,0.367081 -1.835674,0.02184 -3.454247,-0.276041 -5.175781,-0.932408 -0.605002,-0.23067 -1.148558,-0.627517 -1.757813,-0.845599 -0.263327,-0.09426 -0.605159,-0.178599 -0.772508,0.122786 -0.298977,0.53842 0.390449,1.349139 0.711926,1.712149 1.038698,1.172876 2.514828,2.60824 4.064489,3.067881 -0.243867,0.169319 -0.521961,0.304049 -0.656355,0.587857 -0.407689,0.860959 0.635347,1.87993 1.340664,2.172178 1.06523,0.441366 2.312803,0.40915 3.421622,0.273603 0.791264,-0.09673 1.611126,-0.126064 2.38629,-0.333476 1.721817,-0.460708 3.42902,-1.016545 5.029297,-1.812327 2.399433,-1.19319 4.601598,-2.730954 7.037538,-3.855199 3.623206,-1.672196 7.795966,-2.354651 11.763209,-2.354902 2.733428,-1.72e-4 5.460984,0.184572 8.155013,0.640417 0.633603,0.10721 1.270484,0.189328 1.903581,0.299525 0.122309,0.02129 0.616568,0.04055 0.563407,0.239169 -0.06086,0.227392 -0.383377,0.452638 -0.535303,0.62753 -0.528747,0.608653 -1.132858,1.189989 -1.737088,1.722926 -2.121425,1.871121 -4.231984,3.670013 -6.591797,5.243218 -10.792363,7.194912 -24.57217,9.499919 -37.158203,6.516069 C 33.074754,94.898313 27.64779,92.347944 22.65625,88.948041 18.902877,86.391491 15.573561,83.126497 12.744141,79.589844 9.3089968,75.296068 6.6408992,70.394915 4.883001,65.185547 0.09113401,50.985295 2.4305791,34.716141 11.153685,22.509766 14.368504,18.011218 18.34439,14.027929 22.900391,10.887426 29.249787,6.5107167 36.646605,3.598839 44.335937,2.7751029 46.05605,2.5908351 47.780824,2.4414063 49.511719,2.4414063 c 0.655448,0 1.411783,-0.1033128 2.050781,0.048828 M 79.296875,12.5 v 0.04883 l -1.318359,-0.302726 -5.957032,-1.35743 -0.24414,-3.1738283 C 72.603649,7.9528749 73.435086,8.563 74.169922,9.0038896 75.955868,10.075432 77.6088,11.286503 79.296875,12.5 M 40.185547,32.191676 c 2.299228,-0.271291 4.577958,0.716448 6.494856,1.836932 0.738331,0.431579 1.786491,1.120662 2.099383,1.95772 0.320285,0.856835 0.08557,2.092189 0.0032,2.978516 -0.125322,1.347875 -0.445649,2.850783 -1.110351,4.044443 -1.413191,2.537787 -4.038367,4.108137 -6.901116,4.394573 -2.554172,0.255561 -5.09153,-0.193155 -7.230931,-1.662081 -0.583086,-0.400353 -1.408187,-0.858581 -1.750994,-1.503688 -0.49333,-0.928367 -0.222012,-2.288831 -0.151572,-3.272009 0.241486,-3.370548 1.901398,-6.596136 5.085132,-8.044625 1.124746,-0.511718 2.261782,-0.588113 3.462428,-0.729781 m -2.246094,16.652501 c 0.460303,-0.08071 1.067954,-0.03232 1.399964,0.330871 0.697407,0.762898 0.45988,2.626616 -0.667542,2.853089 -1.019344,0.20476 -1.549578,-0.389772 -1.855281,-1.295715 -0.0801,-0.237382 -0.221559,-0.576526 -0.166225,-0.830078 0.106072,-0.486052 0.824144,-0.97664 1.289084,-1.058167 m 35.986328,-0.0014 c 0.543314,-0.08028 1.145274,-0.0057 1.481986,0.473624 0.583631,0.830829 0.285679,2.558613 -0.84722,2.726012 -0.996494,0.147242 -1.478636,-0.431412 -1.774049,-1.310032 -0.07919,-0.235528 -0.231904,-0.578439 -0.172067,-0.830078 0.116599,-0.49035 0.836367,-0.989342 1.31135,-1.059526 m -59.033203,4.184526 c 0.471418,2.430892 3.603777,2.312684 4.620285,4.345703 0.815449,1.630896 -0.07403,3.810143 -1.641769,4.599148 -1.389049,0.699073 -3.494442,0.685996 -4.931641,0.134015 -1.457175,-0.559658 -1.773776,-2.305728 -0.585937,-3.317148 0.884053,0.492192 1.747141,1.203228 2.783203,1.352531 0.344935,0.04971 1.001468,0.05861 1.107336,-0.376683 0.16895,-0.694663 -1.090569,-1.134807 -1.546789,-1.381541 -1.338523,-0.72391 -2.997036,-1.557338 -3.074251,-3.305244 -0.03896,-0.881946 0.163788,-1.673281 0.689434,-2.392578 0.194447,-0.266087 0.461534,-0.468302 0.654696,-0.732422 0.239182,-0.327039 0.254363,-0.742972 0.532099,-1.073503 0.78026,-0.928581 2.148871,-1.172966 3.297631,-1.172591 0.87797,2.86e-4 1.953103,0.152177 2.578886,0.831998 0.737476,0.80117 0.830345,2.306819 0.255519,3.220737 -0.18073,0.287342 -0.684367,0.840747 -1.076593,0.781554 -0.336001,-0.05071 -0.793838,-0.55607 -1.123046,-0.720674 -0.797828,-0.39891 -1.666224,-0.624031 -2.539063,-0.793302 M 61.816406,49.91647 c 1.038593,-0.135297 1.560605,0.654268 1.651865,1.597202 0.07892,0.815475 0.0083,1.670831 0.0083,2.490234 v 4.931641 c 0,0.464696 -0.07821,1.010752 0.02584,1.464844 0.07085,0.309175 0.375444,0.653052 0.335276,0.976562 -0.06906,0.556189 -0.940156,1.012534 -1.435339,1.065743 -1.212788,0.13032 -1.556516,-0.893974 -1.651865,-1.895821 -0.224877,-2.362764 -0.0083,-4.851997 -0.0083,-7.226563 0,-0.595223 -0.04979,-1.171827 -0.159215,-1.757812 -0.04306,-0.230569 -0.212968,-0.550097 -0.176669,-0.78125 0.07591,-0.483394 0.997425,-0.811023 1.410103,-0.86478 m 5.664063,3.940952 c 1.175058,-1.171816 3.269177,-1.238293 4.010117,0.488281 0.288069,0.671274 0.23793,1.434827 0.23793,2.148438 0,1.468098 0.151449,2.988207 -0.753332,4.248046 -1.376879,1.917208 -4.859167,2.602351 -6.018519,0.04883 -0.345486,-0.760949 -0.210571,-1.724351 -0.210571,-2.539063 v -5.029297 c 0,-0.54512 -0.04981,-1.075995 -0.156242,-1.611328 -0.04717,-0.237238 -0.216722,-0.593948 -0.179642,-0.830078 0.04133,-0.263226 0.372982,-0.438201 0.580024,-0.557643 0.637824,-0.367963 1.554865,-0.534046 2.080548,0.118905 0.702083,0.872058 0.409687,2.473164 0.409687,3.51491 m 12.548828,-0.53711 c 0.338471,0.0028 1.21938,-0.08607 1.492685,0.09902 0.149846,0.101471 0.169396,0.372678 0.194865,0.53575 0.07945,0.508666 0.121707,1.323223 -0.329405,1.677108 -0.323593,0.253856 -0.969338,0.129533 -1.358145,0.129533 0,1.105642 -0.245088,2.573228 0.189286,3.613281 0.135011,0.323272 0.322497,0.629103 0.592679,0.856221 0.374293,0.314641 0.828183,0.37232 0.687778,0.95042 -0.425106,1.750362 -2.730435,1.526469 -3.596705,0.292968 -1.148844,-1.635861 -0.26955,-3.880298 -0.565821,-5.711984 -0.07681,-0.474847 -0.853276,-0.239957 -0.870538,-0.782347 -0.01251,-0.392896 0.09666,-0.851548 0.330377,-1.170969 0.14804,-0.202322 0.452179,-0.323117 0.491148,-0.587368 0.06512,-0.441563 -0.09918,-1.03606 -0.206202,-1.464129 -0.06166,-0.246626 -0.187344,-0.501346 -0.0093,-0.727862 0.581651,-0.740003 2.101242,-0.991958 2.640938,-0.10218 0.424099,0.699198 0.316364,1.612771 0.316364,2.392542 m -47.119141,6.884766 c 0,-1.658273 0.04256,-3.322828 -7.15e-4,-4.980469 -0.01097,-0.420183 -0.545082,-1.192432 -0.310904,-1.560545 0.66461,-1.044714 2.515686,-0.972026 2.943778,0.193358 0.216198,0.588548 0.102216,1.334882 0.102216,1.953125 v 3.808594 c 0,0.300872 -0.04262,0.638473 0.05395,0.927734 0.0825,0.247109 0.338218,0.561309 0.30137,0.830078 -0.04351,0.317371 -0.407207,0.579107 -0.64829,0.745869 -0.937902,0.648773 -2.075058,0.290316 -2.34375,-0.843525 -0.237444,0.402546 -0.495016,0.789875 -0.927734,1.006931 -1.039407,0.521374 -2.456811,-0.05576 -2.960092,-1.055759 -0.335347,-0.666321 -0.262564,-1.427281 -0.262564,-2.148438 v -3.662109 c -2.09e-4,-0.540948 -0.402346,-1.100469 -0.359202,-1.611292 0.0205,-0.242746 0.319282,-0.40446 0.505686,-0.514997 0.531483,-0.315153 1.399282,-0.574541 1.95241,-0.17839 0.590646,0.42302 0.635481,1.109904 0.635481,1.767569 v 3.369141 c 0,1.029801 0.06095,1.942718 1.318359,1.953125 m 4.882813,-7.260734 c 1.040172,-0.149959 1.659569,0.439644 1.792511,1.450187 0.221756,1.685632 0.06296,3.476393 0.06296,5.175781 0,0.313545 -0.04865,0.673855 0.04416,0.976563 0.07639,0.249153 0.325283,0.564063 0.293159,0.830078 -0.06247,0.517362 -0.902328,0.991529 -1.362705,1.059526 -0.98849,0.146002 -1.55699,-0.537216 -1.688075,-1.450151 -0.08843,-0.615889 -0.02091,-1.282459 -0.02091,-1.904297 0,-1.287496 0.01666,-2.573424 0.04811,-3.857422 0.02123,-0.866913 -0.294256,-2.118063 0.830794,-2.280265 m 5.761718,1.352531 c 0.44939,-0.410354 0.721869,-0.906861 1.31836,-1.149726 1.079926,-0.439691 2.112442,0.05319 1.993665,1.29621 -0.09131,0.955582 -0.549862,1.583541 -1.212415,2.246094 h -0.04883 c -0.616768,-0.489473 -1.219991,-0.726354 -1.953125,-0.976562 0,1.481056 -0.0077,2.962327 3.8e-5,4.443359 0.0021,0.400269 0.452215,0.962299 0.309396,1.318359 -0.473386,1.180184 -2.429977,1.356036 -2.880332,0.09766 C 40.832427,60.876459 40.917969,60.101897 40.917969,59.375 v -3.759766 c 0,-0.383508 -0.04619,-0.707709 -0.163287,-1.074218 -0.06809,-0.213111 -0.232244,-0.505102 -0.202811,-0.732422 0.04774,-0.368691 0.604203,-0.612653 0.903207,-0.73849 1.01403,-0.426745 2.008325,0.109273 2.099609,1.226771 m 6.640625,0 c 0.345505,-0.375366 0.620431,-0.772405 1.074219,-1.031303 0.240207,-0.137055 0.508583,-0.222719 0.78125,-0.265623 1.76751,-0.278091 1.672673,1.836443 0.975168,2.859426 -0.15766,0.23123 -0.439841,0.69139 -0.731027,0.758755 -0.193352,0.04474 -0.435102,-0.220513 -0.585938,-0.316667 -0.450468,-0.287164 -0.925463,-0.4035 -1.416015,-0.588572 0,1.481115 -0.0025,2.962243 0,4.443359 7.03e-4,0.422949 0.455785,0.98626 0.270474,1.367187 -0.555224,1.141328 -2.441669,1.306254 -2.870608,0 -0.236481,-0.720155 -0.183069,-1.546323 -0.183069,-2.294921 v -3.515625 c 0,-0.287116 0.03372,-0.598467 -0.03711,-0.878907 -0.07955,-0.314962 -0.310898,-0.695204 -0.282079,-1.025354 0.03535,-0.405002 0.674957,-0.66396 1.002782,-0.777406 1.028079,-0.355774 1.859033,0.205326 2.001953,1.265651 m 23.535157,-1.352531 c 0.991744,-0.142979 1.650142,0.361139 1.800084,1.352531 0.254285,1.681298 0.05538,3.524184 0.05538,5.224609 0,0.313533 -0.04866,0.673867 0.04416,0.976563 0.08419,0.274575 0.379234,0.631428 0.307059,0.927734 -0.123,0.504971 -0.900418,0.942081 -1.376605,1.010734 -1.09179,0.157404 -1.550228,-0.644368 -1.673907,-1.596671 -0.239539,-1.84443 0.01375,-3.807462 0.01375,-5.664063 0,-0.818306 -0.210989,-2.081346 0.830078,-2.231437 m -48.97461,8.92089 c -1.579167,1.365471 -3.71229,0.185347 -3.89796,-1.757812 -0.05815,-0.608587 -0.0083,-1.244128 -0.0083,-1.855469 0,-0.861335 -0.06682,-1.745635 0.332491,-2.539062 0.533244,-1.059544 1.56988,-1.79354 2.548369,-2.406747 1.262849,-0.791406 3.206527,-0.09815 3.736895,1.2837 0.218111,0.568276 0.0717,1.398563 0.0717,2.001953 V 60.9375 c 0,0.534332 -0.07564,1.133412 0.01605,1.660156 0.09129,0.52445 0.51775,0.876844 0.07136,1.362819 -0.65223,0.710064 -1.974848,1.048791 -2.5518,0.0532 -0.356002,-0.614321 -0.318814,-1.461405 -0.318814,-2.148438 m 31.933594,-2.734375 c 0.409085,0.575865 1.170683,0.826741 1.855469,0.830043 0.25953,0.0013 0.94915,-0.144637 1.139998,0.02954 0.693661,0.633037 -0.54776,1.834535 -1.042342,2.081859 -1.296174,0.648177 -2.980584,0.498587 -4.101527,-0.425065 -0.634271,-0.522631 -0.937456,-1.337182 -1.070296,-2.125752 -0.279165,-1.657199 -0.126881,-3.725755 1.035559,-5.028581 0.39593,-0.443745 0.867551,-0.50816 1.353061,-0.778044 0.871718,-0.484573 1.486355,-0.947713 2.539062,-0.602102 1.53066,0.502527 1.836962,2.673298 1.226056,3.967321 -0.475758,1.007748 -1.839554,1.886702 -2.93504,2.050781 m 28.759766,0 c 0.417238,0.590676 1.156354,0.826669 1.855468,0.830043 0.258512,0.0012 0.941587,-0.149942 1.13017,0.0295 0.639141,0.608152 -0.456047,1.753908 -0.934857,2.027232 -1.196176,0.682842 -2.88952,0.585591 -4.003906,-0.203336 -1.630551,-1.154345 -1.63104,-3.921902 -1.137209,-5.661952 0.144231,-0.508201 0.352913,-0.998235 0.681591,-1.416016 0.464606,-0.590569 0.97512,-0.683319 1.578665,-1.022148 0.825011,-0.46317 1.382213,-0.911546 2.392578,-0.641739 1.647413,0.439924 2.015054,2.7664 1.30257,4.105293 -0.535166,1.005674 -1.781494,1.70244 -2.86507,1.953125 M 23.4375,55.273437 v 2.929688 c 0,0.471061 -0.08055,1.020586 0.102253,1.464844 0.20217,0.491327 0.719206,0.673282 1.216106,0.683593 v -3.173828 c 0,-0.349545 0.117667,-0.966537 -0.07829,-1.268816 C 24.4155,55.504656 23.866804,55.394363 23.4375,55.273437 m 44.042969,0 v 3.027344 c 0,0.456167 -0.05529,1.023066 0.226998,1.415265 0.2765,0.384152 0.795418,0.470042 1.237845,0.489032 v -3.125 c 0,-0.473648 0.05912,-1.065135 -0.271379,-1.455802 -0.29279,-0.346094 -0.779433,-0.350839 -1.193464,-0.350839 m -11.425782,0.146485 0.146485,2.880859 c 0.989514,-0.468105 1.955157,-2.293408 0.439453,-2.79541 -0.193226,-0.064 -0.383782,-0.08378 -0.585938,-0.08545 m 28.759766,0 c 0,0.949311 -0.09331,1.954019 0.146484,2.880859 0.45209,-0.241613 0.882042,-0.585222 1.077647,-1.074219 0.385093,-0.962698 -0.203026,-1.798081 -1.224131,-1.80664 m -0.292969,11.083984 c 0.544018,-0.707614 1.484108,-0.640225 1.953125,0.09766 0.337655,-0.703728 1.443142,-0.838816 1.881427,-0.145769 0.44769,0.707925 0.216842,1.928032 0.218183,2.73366 4.17e-4,0.251472 0.1755,0.600016 0.105679,0.829888 -0.126791,0.417435 -0.798512,0.585067 -1.125944,0.320816 -0.986779,-0.796378 0.534922,-2.901412 -0.981688,-3.299141 v 2.246093 c 3.93e-4,0.244058 0.13591,0.60041 0.06382,0.827968 -0.14168,0.447244 -1.038497,0.470096 -1.256573,0.09464 -0.547492,-0.942582 0.646281,-2.78796 -0.809205,-3.168702 v 2.246093 c 1.2e-5,0.240946 0.121421,0.605739 0.05972,0.827968 -0.180131,0.648767 -1.250136,0.362576 -1.355242,-0.193202 -0.157166,-0.831044 -0.01297,-1.791179 -0.02303,-2.636719 -0.0033,-0.275194 -0.193143,-0.667727 -0.112426,-0.925624 0.221574,-0.707948 1.201046,-0.373829 1.382148,0.144374 m -6.884765,0.634766 c 0,0.952148 0.06293,2.482039 1.464843,2.148437 0.287784,0.598842 -0.293487,1.141233 -0.878906,1.16992 -0.896471,0.04393 -1.605761,-0.343036 -1.805925,-1.267576 -0.183034,-0.845426 -0.08948,-2.048886 0.634086,-2.617657 0.513792,-0.403869 1.809579,-0.99448 2.116525,-0.01903 0.117022,0.371897 -0.215858,1.179761 -0.700545,1.083303 -0.281787,-0.05608 -0.552559,-0.381095 -0.830078,-0.497401 m 3.564453,-1.106995 c 0.930691,-0.16355 1.434743,0.446802 1.574516,1.302307 0.183296,1.121903 -0.05059,2.878994 -1.428032,3.109098 -1.637137,0.27349 -2.232438,-1.629752 -1.734978,-2.913785 0.177962,-0.459361 0.496304,-0.606257 0.833124,-0.912476 0.264228,-0.240218 0.360394,-0.515735 0.75537,-0.585144 m -0.355095,1.206761 c -0.132268,0.0968 -0.124478,0.341857 -0.13439,0.486171 -0.03022,0.440014 -0.06198,0.884712 0.05783,1.31836 0.06027,0.218141 0.251144,0.535214 0.51834,0.352418 0.402069,-0.275051 0.309884,-1.376009 0.168943,-1.768398 -0.0683,-0.190127 -0.369459,-0.565124 -0.610727,-0.388551 m -5.797249,1.917029 c 0.852478,-0.09016 1.332873,1.144403 0.390625,1.293081 -0.285089,0.04498 -0.69322,0.05224 -0.916767,-0.1553 -0.504178,-0.46807 -0.01881,-1.080144 0.526142,-1.137781 z"
       id="path1" /></g></svg>
